<?xml version="1.0" encoding="utf-8"?>
<!-- Generator: Adobe Illustrator 15.0.0, SVG Export Plug-In . SVG Version: 6.00 Build 0)  -->
<!DOCTYPE svg PUBLIC "-//W3C//DTD SVG 1.1//EN" "http://www.w3.org/Graphics/SVG/1.1/DTD/svg11.dtd">
<svg version="1.1"
	 id="svg12385" sodipodi:docname="automobile car white.svg" sodipodi:version="0.32" inkscape:version="0.46+pre4" inkscape:output_extension="org.inkscape.output.svg.inkscape" xmlns:inkscape="http://www.inkscape.org/namespaces/inkscape" xmlns:sodipodi="http://sodipodi.sourceforge.net/DTD/sodipodi-0.dtd" xmlns:rdf="http://www.w3.org/1999/02/22-rdf-syntax-ns#" xmlns:svg="http://www.w3.org/2000/svg" xmlns:cc="http://creativecommons.org/ns#" xmlns:dc="http://purl.org/dc/elements/1.1/"
	 xmlns="http://www.w3.org/2000/svg" xmlns:xlink="http://www.w3.org/1999/xlink" x="0px" y="0px" width="744.094px"
	 height="1052.363px" viewBox="0 0 744.094 1052.363" enable-background="new 0 0 744.094 1052.363" xml:space="preserve">
<g id="layer1_1_" inkscape:groupmode="layer" inkscape:label="Layer 1">
	<path id="path5294_1_" fill="#FFFFFF" d="M23.321,63.892v7.802c0,4.294-3.477,7.747-7.733,7.747c-4.28,0-7.734-3.453-7.734-7.747
		v-7.802H0V38.558v-0.025c0-5.541,3.719-10.191,8.786-11.572l9.059-21.577C19.183,2.233,22.284,0,25.909,0H72.32
		c3.65,0,6.775,2.233,8.09,5.384l9.048,21.577c5.083,1.381,8.823,6.028,8.823,11.572l-0.027,0.025v25.334h-7.878l0.039,7.802
		c0,4.294-3.468,7.747-7.733,7.747c-4.295,0-7.748-3.453-7.748-7.747l0.025-7.802H23.321z"/>
</g>
<defs>
	
	
		<inkscape:perspective  sodipodi:type="inkscape:persp3d" inkscape:vp_y="0 : 1000 : 0" inkscape:persp3d-origin="372.04724 : 350.78739 : 1" inkscape:vp_x="0 : 526.18109 : 1" inkscape:vp_z="744.09448 : 526.18109 : 1" id="perspective12393">
		</inkscape:perspective>
</defs>
<sodipodi:namedview  id="base" inkscape:document-units="px" inkscape:pageshadow="2" inkscape:current-layer="layer1" inkscape:window-width="1280" inkscape:window-height="938" inkscape:window-x="-4" inkscape:window-y="-4" borderopacity="1.0" inkscape:pageopacity="0.0" pagecolor="#ffffff" bordercolor="#666666" gridtolerance="10000" guidetolerance="10" inkscape:cx="282.59269" objecttolerance="10" inkscape:zoom="0.7" inkscape:cy="520" showgrid="false">
	</sodipodi:namedview>
<g id="layer1" inkscape:groupmode="layer" inkscape:label="Layer 1">
	<path id="path5294" fill="#5AC9E9" d="M81.697,26.528l-7.788-18.62c-0.314-0.935-1.208-1.601-2.285-1.601H26.621
		c-1.039,0-1.944,0.669-2.284,1.601l-7.761,18.62H81.697z M89.551,42.117c0-4.348-3.52-7.829-7.867-7.829
		c-4.336,0-7.854,3.481-7.854,7.829c0,4.319,3.521,7.852,7.854,7.852C86.031,49.969,89.551,46.437,89.551,42.117 M16.048,49.969
		c4.333,0,7.866-3.532,7.866-7.852c0-4.348-3.533-7.829-7.866-7.829c-4.346,0-7.852,3.481-7.852,7.829
		C8.196,46.437,11.699,49.969,16.048,49.969 M23.321,63.892v7.802c0,4.294-3.477,7.747-7.733,7.747c-4.28,0-7.734-3.453-7.734-7.747
		v-7.802H0V38.558v-0.025c0-5.541,3.719-10.191,8.786-11.572l9.059-21.577C19.183,2.233,22.284,0,25.909,0H72.32
		c3.65,0,6.776,2.233,8.09,5.384l9.048,21.577c5.083,1.381,8.823,6.028,8.823,11.572l-0.027,0.025v25.334h-7.878l0.039,7.802
		c0,4.294-3.468,7.747-7.734,7.747c-4.294,0-7.747-3.453-7.747-7.747l0.025-7.802H23.321z"/>
</g>
</svg>
